<mxfile host="app.diagrams.net" agent="Mozilla/5.0 (Windows NT 10.0; Win64; x64) AppleWebKit/537.36 (KHTML, like Gecko) Chrome/130.0.0.0 Safari/537.36" version="24.8.2">
  <diagram name="Page-1" id="wXJh2Ujk4fOFyac5_G2R">
    <mxGraphModel dx="2625" dy="1325" grid="1" gridSize="10" guides="1" tooltips="1" connect="1" arrows="1" fold="1" page="1" pageScale="1" pageWidth="850" pageHeight="1100" math="0" shadow="0">
      <root>
        <mxCell id="0" />
        <mxCell id="1" parent="0" />
        <mxCell id="ZRoRT4lpdqOZZUP7kBYj-5" style="edgeStyle=orthogonalEdgeStyle;rounded=0;orthogonalLoop=1;jettySize=auto;html=1;exitX=0.5;exitY=1;exitDx=0;exitDy=0;entryX=0.5;entryY=0;entryDx=0;entryDy=0;" parent="1" source="ZRoRT4lpdqOZZUP7kBYj-1" target="ZRoRT4lpdqOZZUP7kBYj-2" edge="1">
          <mxGeometry relative="1" as="geometry" />
        </mxCell>
        <mxCell id="ZRoRT4lpdqOZZUP7kBYj-1" value="&lt;font style=&quot;font-size: 18px;&quot;&gt;start&lt;/font&gt;" style="ellipse;whiteSpace=wrap;html=1;" parent="1" vertex="1">
          <mxGeometry x="389.89" y="50" width="120" height="80" as="geometry" />
        </mxCell>
        <mxCell id="N25DlGVjZEdbkpcJK7he-2" value="" style="edgeStyle=orthogonalEdgeStyle;rounded=0;orthogonalLoop=1;jettySize=auto;html=1;" edge="1" parent="1" source="ZRoRT4lpdqOZZUP7kBYj-2" target="N25DlGVjZEdbkpcJK7he-1">
          <mxGeometry relative="1" as="geometry" />
        </mxCell>
        <mxCell id="ZRoRT4lpdqOZZUP7kBYj-2" value="declaration of variables&lt;div&gt;&lt;div&gt;principal, rate, time, n&lt;/div&gt;&lt;/div&gt;" style="rounded=0;whiteSpace=wrap;html=1;" parent="1" vertex="1">
          <mxGeometry x="369.89" y="160" width="160" height="80" as="geometry" />
        </mxCell>
        <mxCell id="N25DlGVjZEdbkpcJK7he-14" value="&lt;font style=&quot;font-size: 18px;&quot;&gt;No&lt;/font&gt;" style="edgeStyle=orthogonalEdgeStyle;rounded=0;orthogonalLoop=1;jettySize=auto;html=1;entryX=0.5;entryY=0;entryDx=0;entryDy=0;" edge="1" parent="1" source="R-SLLqxYbJGO4KXh2v5R-16" target="N25DlGVjZEdbkpcJK7he-12">
          <mxGeometry relative="1" as="geometry" />
        </mxCell>
        <mxCell id="N25DlGVjZEdbkpcJK7he-19" style="edgeStyle=orthogonalEdgeStyle;rounded=0;orthogonalLoop=1;jettySize=auto;html=1;entryX=0.5;entryY=0;entryDx=0;entryDy=0;" edge="1" parent="1" source="R-SLLqxYbJGO4KXh2v5R-16" target="N25DlGVjZEdbkpcJK7he-16">
          <mxGeometry relative="1" as="geometry" />
        </mxCell>
        <mxCell id="N25DlGVjZEdbkpcJK7he-24" value="&lt;font style=&quot;font-size: 18px;&quot;&gt;Yes&lt;/font&gt;" style="edgeLabel;html=1;align=center;verticalAlign=middle;resizable=0;points=[];" vertex="1" connectable="0" parent="N25DlGVjZEdbkpcJK7he-19">
          <mxGeometry x="-0.1983" relative="1" as="geometry">
            <mxPoint as="offset" />
          </mxGeometry>
        </mxCell>
        <mxCell id="R-SLLqxYbJGO4KXh2v5R-16" value="n != 1&amp;nbsp; OR&amp;nbsp; n != 4&amp;nbsp; OR&amp;nbsp; n != 12" style="rhombus;whiteSpace=wrap;html=1;" parent="1" vertex="1">
          <mxGeometry x="349.83" y="700" width="200.11" height="120" as="geometry" />
        </mxCell>
        <mxCell id="N25DlGVjZEdbkpcJK7he-7" value="" style="edgeStyle=orthogonalEdgeStyle;rounded=0;orthogonalLoop=1;jettySize=auto;html=1;" edge="1" parent="1" source="N25DlGVjZEdbkpcJK7he-1" target="N25DlGVjZEdbkpcJK7he-3">
          <mxGeometry relative="1" as="geometry" />
        </mxCell>
        <mxCell id="N25DlGVjZEdbkpcJK7he-1" value="principal = getUsetInputDouble(&quot;some input message&quot;)" style="shape=process;whiteSpace=wrap;html=1;backgroundOutline=1;" vertex="1" parent="1">
          <mxGeometry x="244.9" y="270" width="410" height="60" as="geometry" />
        </mxCell>
        <mxCell id="N25DlGVjZEdbkpcJK7he-8" value="" style="edgeStyle=orthogonalEdgeStyle;rounded=0;orthogonalLoop=1;jettySize=auto;html=1;" edge="1" parent="1" source="N25DlGVjZEdbkpcJK7he-3" target="N25DlGVjZEdbkpcJK7he-5">
          <mxGeometry relative="1" as="geometry" />
        </mxCell>
        <mxCell id="N25DlGVjZEdbkpcJK7he-3" value="rate = getUsetInputDouble(&quot;some input message&quot;)" style="shape=process;whiteSpace=wrap;html=1;backgroundOutline=1;" vertex="1" parent="1">
          <mxGeometry x="244.9" y="370" width="410" height="60" as="geometry" />
        </mxCell>
        <mxCell id="N25DlGVjZEdbkpcJK7he-9" value="" style="edgeStyle=orthogonalEdgeStyle;rounded=0;orthogonalLoop=1;jettySize=auto;html=1;" edge="1" parent="1" source="N25DlGVjZEdbkpcJK7he-5" target="N25DlGVjZEdbkpcJK7he-6">
          <mxGeometry relative="1" as="geometry" />
        </mxCell>
        <mxCell id="N25DlGVjZEdbkpcJK7he-5" value="time = getUsetInputInt(&quot;some input message&quot;)" style="shape=process;whiteSpace=wrap;html=1;backgroundOutline=1;" vertex="1" parent="1">
          <mxGeometry x="244.9" y="470" width="410" height="60" as="geometry" />
        </mxCell>
        <mxCell id="N25DlGVjZEdbkpcJK7he-13" style="edgeStyle=orthogonalEdgeStyle;rounded=0;orthogonalLoop=1;jettySize=auto;html=1;entryX=0.5;entryY=0;entryDx=0;entryDy=0;" edge="1" parent="1" source="N25DlGVjZEdbkpcJK7he-6" target="R-SLLqxYbJGO4KXh2v5R-16">
          <mxGeometry relative="1" as="geometry" />
        </mxCell>
        <mxCell id="N25DlGVjZEdbkpcJK7he-6" value="n = getUsetInputInt(&quot;some input message&quot;)" style="shape=process;whiteSpace=wrap;html=1;backgroundOutline=1;" vertex="1" parent="1">
          <mxGeometry x="244.9" y="570" width="410" height="60" as="geometry" />
        </mxCell>
        <mxCell id="N25DlGVjZEdbkpcJK7he-15" style="edgeStyle=orthogonalEdgeStyle;rounded=0;orthogonalLoop=1;jettySize=auto;html=1;" edge="1" parent="1" source="N25DlGVjZEdbkpcJK7he-12">
          <mxGeometry relative="1" as="geometry">
            <mxPoint x="449.9000000000001" y="660" as="targetPoint" />
            <Array as="points">
              <mxPoint x="450" y="1010" />
              <mxPoint x="720" y="1010" />
              <mxPoint x="720" y="660" />
            </Array>
          </mxGeometry>
        </mxCell>
        <mxCell id="N25DlGVjZEdbkpcJK7he-12" value="n = getUsetInputInt(&quot;some input message&quot;)" style="shape=process;whiteSpace=wrap;html=1;backgroundOutline=1;" vertex="1" parent="1">
          <mxGeometry x="244.9" y="900" width="410" height="60" as="geometry" />
        </mxCell>
        <mxCell id="N25DlGVjZEdbkpcJK7he-21" value="" style="edgeStyle=orthogonalEdgeStyle;rounded=0;orthogonalLoop=1;jettySize=auto;html=1;" edge="1" parent="1" source="N25DlGVjZEdbkpcJK7he-16" target="N25DlGVjZEdbkpcJK7he-17">
          <mxGeometry relative="1" as="geometry" />
        </mxCell>
        <mxCell id="N25DlGVjZEdbkpcJK7he-16" value="calculations of&lt;div&gt;amount and profit&lt;/div&gt;" style="rounded=0;whiteSpace=wrap;html=1;" vertex="1" parent="1">
          <mxGeometry x="60" y="810" width="120" height="60" as="geometry" />
        </mxCell>
        <mxCell id="N25DlGVjZEdbkpcJK7he-22" value="" style="edgeStyle=orthogonalEdgeStyle;rounded=0;orthogonalLoop=1;jettySize=auto;html=1;" edge="1" parent="1" source="N25DlGVjZEdbkpcJK7he-17" target="N25DlGVjZEdbkpcJK7he-18">
          <mxGeometry relative="1" as="geometry" />
        </mxCell>
        <mxCell id="N25DlGVjZEdbkpcJK7he-17" value="output of all&lt;br&gt;inputs and calculations" style="shape=parallelogram;perimeter=parallelogramPerimeter;whiteSpace=wrap;html=1;fixedSize=1;" vertex="1" parent="1">
          <mxGeometry x="35" y="900" width="170" height="60" as="geometry" />
        </mxCell>
        <mxCell id="N25DlGVjZEdbkpcJK7he-18" value="&lt;font style=&quot;font-size: 18px;&quot;&gt;end&lt;/font&gt;" style="ellipse;whiteSpace=wrap;html=1;" vertex="1" parent="1">
          <mxGeometry x="60" y="990" width="120" height="80" as="geometry" />
        </mxCell>
        <mxCell id="N25DlGVjZEdbkpcJK7he-27" value="" style="edgeStyle=orthogonalEdgeStyle;rounded=0;orthogonalLoop=1;jettySize=auto;html=1;" edge="1" parent="1" source="N25DlGVjZEdbkpcJK7he-25" target="N25DlGVjZEdbkpcJK7he-26">
          <mxGeometry relative="1" as="geometry" />
        </mxCell>
        <mxCell id="N25DlGVjZEdbkpcJK7he-25" value="getUsetInputDouble(inputMessage)" style="ellipse;whiteSpace=wrap;html=1;" vertex="1" parent="1">
          <mxGeometry x="785" y="110" width="230" height="110" as="geometry" />
        </mxCell>
        <mxCell id="N25DlGVjZEdbkpcJK7he-29" value="" style="edgeStyle=orthogonalEdgeStyle;rounded=0;orthogonalLoop=1;jettySize=auto;html=1;" edge="1" parent="1" source="N25DlGVjZEdbkpcJK7he-26" target="N25DlGVjZEdbkpcJK7he-28">
          <mxGeometry relative="1" as="geometry" />
        </mxCell>
        <mxCell id="N25DlGVjZEdbkpcJK7he-26" value="declaration of&lt;br&gt;double userInput" style="rounded=0;whiteSpace=wrap;html=1;" vertex="1" parent="1">
          <mxGeometry x="840" y="260" width="120" height="60" as="geometry" />
        </mxCell>
        <mxCell id="N25DlGVjZEdbkpcJK7he-32" value="" style="edgeStyle=orthogonalEdgeStyle;rounded=0;orthogonalLoop=1;jettySize=auto;html=1;" edge="1" parent="1" source="N25DlGVjZEdbkpcJK7he-28" target="N25DlGVjZEdbkpcJK7he-31">
          <mxGeometry relative="1" as="geometry" />
        </mxCell>
        <mxCell id="N25DlGVjZEdbkpcJK7he-28" value="output inputMessage" style="shape=parallelogram;perimeter=parallelogramPerimeter;whiteSpace=wrap;html=1;fixedSize=1;" vertex="1" parent="1">
          <mxGeometry x="820" y="360" width="160" height="80" as="geometry" />
        </mxCell>
        <mxCell id="N25DlGVjZEdbkpcJK7he-34" value="" style="edgeStyle=orthogonalEdgeStyle;rounded=0;orthogonalLoop=1;jettySize=auto;html=1;" edge="1" parent="1" source="N25DlGVjZEdbkpcJK7he-31" target="N25DlGVjZEdbkpcJK7he-33">
          <mxGeometry relative="1" as="geometry" />
        </mxCell>
        <mxCell id="N25DlGVjZEdbkpcJK7he-31" value="input userInput" style="shape=parallelogram;perimeter=parallelogramPerimeter;whiteSpace=wrap;html=1;fixedSize=1;" vertex="1" parent="1">
          <mxGeometry x="820" y="480" width="160" height="80" as="geometry" />
        </mxCell>
        <mxCell id="N25DlGVjZEdbkpcJK7he-33" value="return userInput" style="ellipse;whiteSpace=wrap;html=1;" vertex="1" parent="1">
          <mxGeometry x="817.5" y="600" width="165" height="110" as="geometry" />
        </mxCell>
        <mxCell id="N25DlGVjZEdbkpcJK7he-35" value="" style="edgeStyle=orthogonalEdgeStyle;rounded=0;orthogonalLoop=1;jettySize=auto;html=1;" edge="1" source="N25DlGVjZEdbkpcJK7he-36" target="N25DlGVjZEdbkpcJK7he-38" parent="1">
          <mxGeometry relative="1" as="geometry" />
        </mxCell>
        <mxCell id="N25DlGVjZEdbkpcJK7he-36" value="getUsetInputInt(inputMessage)" style="ellipse;whiteSpace=wrap;html=1;" vertex="1" parent="1">
          <mxGeometry x="1045" y="110" width="230" height="110" as="geometry" />
        </mxCell>
        <mxCell id="N25DlGVjZEdbkpcJK7he-37" value="" style="edgeStyle=orthogonalEdgeStyle;rounded=0;orthogonalLoop=1;jettySize=auto;html=1;" edge="1" source="N25DlGVjZEdbkpcJK7he-38" target="N25DlGVjZEdbkpcJK7he-40" parent="1">
          <mxGeometry relative="1" as="geometry" />
        </mxCell>
        <mxCell id="N25DlGVjZEdbkpcJK7he-38" value="declaration of&lt;br&gt;integer userInput" style="rounded=0;whiteSpace=wrap;html=1;" vertex="1" parent="1">
          <mxGeometry x="1100" y="260" width="120" height="60" as="geometry" />
        </mxCell>
        <mxCell id="N25DlGVjZEdbkpcJK7he-39" value="" style="edgeStyle=orthogonalEdgeStyle;rounded=0;orthogonalLoop=1;jettySize=auto;html=1;" edge="1" source="N25DlGVjZEdbkpcJK7he-40" target="N25DlGVjZEdbkpcJK7he-42" parent="1">
          <mxGeometry relative="1" as="geometry" />
        </mxCell>
        <mxCell id="N25DlGVjZEdbkpcJK7he-40" value="output inputMessage" style="shape=parallelogram;perimeter=parallelogramPerimeter;whiteSpace=wrap;html=1;fixedSize=1;" vertex="1" parent="1">
          <mxGeometry x="1080" y="360" width="160" height="80" as="geometry" />
        </mxCell>
        <mxCell id="N25DlGVjZEdbkpcJK7he-41" value="" style="edgeStyle=orthogonalEdgeStyle;rounded=0;orthogonalLoop=1;jettySize=auto;html=1;" edge="1" source="N25DlGVjZEdbkpcJK7he-42" target="N25DlGVjZEdbkpcJK7he-43" parent="1">
          <mxGeometry relative="1" as="geometry" />
        </mxCell>
        <mxCell id="N25DlGVjZEdbkpcJK7he-42" value="input userInput" style="shape=parallelogram;perimeter=parallelogramPerimeter;whiteSpace=wrap;html=1;fixedSize=1;" vertex="1" parent="1">
          <mxGeometry x="1080" y="480" width="160" height="80" as="geometry" />
        </mxCell>
        <mxCell id="N25DlGVjZEdbkpcJK7he-43" value="return userInput" style="ellipse;whiteSpace=wrap;html=1;" vertex="1" parent="1">
          <mxGeometry x="1077.5" y="600" width="165" height="110" as="geometry" />
        </mxCell>
        <mxCell id="N25DlGVjZEdbkpcJK7he-44" value="&lt;font style=&quot;font-size: 24px;&quot;&gt;main&lt;/font&gt;" style="text;html=1;align=center;verticalAlign=middle;whiteSpace=wrap;rounded=0;" vertex="1" parent="1">
          <mxGeometry x="419.88" y="10" width="60" height="30" as="geometry" />
        </mxCell>
        <mxCell id="N25DlGVjZEdbkpcJK7he-45" value="&lt;span style=&quot;font-size: 24px;&quot;&gt;double type&lt;/span&gt;&lt;div&gt;&lt;span style=&quot;font-size: 24px;&quot;&gt;user input function&lt;/span&gt;&lt;/div&gt;" style="text;html=1;align=center;verticalAlign=middle;whiteSpace=wrap;rounded=0;" vertex="1" parent="1">
          <mxGeometry x="785" y="65" width="230" height="30" as="geometry" />
        </mxCell>
        <mxCell id="N25DlGVjZEdbkpcJK7he-46" value="&lt;span style=&quot;font-size: 24px;&quot;&gt;integer type&lt;/span&gt;&lt;div&gt;&lt;span style=&quot;font-size: 24px;&quot;&gt;user input function&lt;/span&gt;&lt;/div&gt;" style="text;html=1;align=center;verticalAlign=middle;whiteSpace=wrap;rounded=0;" vertex="1" parent="1">
          <mxGeometry x="1040" y="65" width="230" height="30" as="geometry" />
        </mxCell>
      </root>
    </mxGraphModel>
  </diagram>
</mxfile>
